<?xml version="1.0" standalone="no"?>
<!DOCTYPE svg PUBLIC "-//W3C//DTD SVG 20010904//EN"
 "http://www.w3.org/TR/2001/REC-SVG-20010904/DTD/svg10.dtd">
<svg version="1.0" xmlns="http://www.w3.org/2000/svg"
 width="1174.000000pt" height="1174.000000pt" viewBox="0 0 1174.000000 1174.000000"
 preserveAspectRatio="xMidYMid meet">

<g transform="translate(0.000000,1174.000000) scale(0.100000,-0.100000)"
fill="#000000" stroke="none">
<path d="M0 5870 l0 -5870 5870 0 5870 0 0 5870 0 5870 -5870 0 -5870 0 0
-5870z m10972 510 c32 -34 43 -69 34 -105 -10 -41 -57 -85 -96 -91 -80 -13
-149 82 -116 160 32 78 124 97 178 36z m-9440 -184 c40 -8 94 -21 120 -30 45
-16 49 -15 125 9 43 13 84 25 91 25 9 0 12 -34 12 -135 l0 -135 -40 25 c-137
87 -318 137 -495 139 -137 1 -185 -12 -185 -49 0 -34 34 -42 285 -65 121 -12
254 -28 295 -36 108 -22 187 -67 228 -129 30 -44 33 -56 30 -102 -3 -36 -13
-65 -33 -93 -93 -134 -434 -170 -770 -82 l-70 18 -78 -28 c-43 -15 -82 -28
-87 -28 -6 0 -10 63 -10 160 l0 160 58 -47 c121 -99 284 -152 487 -159 162 -6
228 7 233 47 4 34 -1 35 -213 54 -216 19 -254 23 -340 42 -207 45 -300 164
-234 300 32 66 119 119 234 143 67 13 278 11 357 -4z m5270 -19 l88 -25 77 24
c43 13 84 24 91 24 9 0 12 -34 12 -135 l0 -134 -52 31 c-75 44 -174 83 -270
107 -203 50 -427 31 -402 -34 11 -28 40 -33 384 -65 246 -23 365 -64 423 -147
95 -134 1 -271 -220 -318 -136 -29 -411 -11 -573 38 -42 12 -50 12 -123 -15
-43 -15 -82 -28 -87 -28 -6 0 -10 61 -10 155 0 85 2 155 4 155 3 0 33 -21 68
-48 74 -56 157 -94 265 -124 62 -16 109 -21 228 -22 162 -1 215 10 215 45 0
31 -32 39 -217 54 -215 18 -360 40 -429 66 -58 22 -128 78 -149 120 -35 66 -7
172 58 222 90 69 177 88 377 83 127 -3 171 -9 242 -29z m-1621 8 c46 -9 115
-27 153 -42 l69 -26 54 27 c29 14 56 26 58 26 3 0 5 -63 5 -140 l0 -140 -48
35 c-65 46 -203 111 -282 132 -41 10 -105 17 -170 17 -96 1 -110 -2 -157 -27
-113 -59 -154 -207 -93 -327 40 -79 135 -116 274 -108 96 6 176 36 176 65 0
13 -38 40 -130 93 l-130 75 200 3 c110 1 291 1 402 0 l203 -3 -113 -74 -112
-74 0 -103 c0 -57 -2 -104 -5 -104 -3 0 -36 14 -73 31 l-67 32 -90 -21 c-163
-39 -222 -45 -379 -39 -172 6 -265 26 -378 83 -174 87 -238 215 -174 349 93
197 475 320 807 260z m5244 -10 c33 -8 84 -25 114 -37 l53 -21 54 26 c30 15
57 27 59 27 3 0 5 -63 5 -141 l0 -141 -49 36 c-118 84 -269 140 -411 152 -189
16 -303 -61 -317 -215 -15 -170 92 -260 297 -249 92 6 180 35 180 61 0 21 -24
38 -147 107 -62 34 -113 64 -113 66 0 2 183 4 408 4 l407 0 -65 -41 c-119 -75
-175 -115 -176 -127 -1 -7 -2 -52 -3 -101 l-1 -90 -69 31 -69 30 -114 -28
c-105 -26 -127 -28 -308 -28 -221 0 -289 13 -420 79 -171 86 -238 214 -181
347 50 118 230 223 451 264 96 17 331 11 415 -11z m-7558 -8 c-10 -7 -65 -42
-123 -79 l-104 -67 0 -168 c0 -92 4 -173 8 -179 4 -6 17 -16 30 -23 13 -7 64
-39 115 -71 l92 -60 -405 0 -404 0 93 60 c51 33 106 67 122 75 l29 16 0 175 0
175 -104 67 c-58 37 -113 72 -123 79 -14 9 70 12 387 12 317 0 401 -3 387 -12z
m694 -35 c151 -133 348 -302 353 -302 3 0 6 42 6 93 0 109 10 96 -139 188
l-104 64 167 3 c91 1 241 1 334 0 l167 -3 -95 -59 c-52 -33 -105 -67 -117 -75
-22 -16 -22 -19 -23 -268 l0 -253 -171 0 -172 0 -41 37 c-43 38 -169 152 -296
268 l-75 68 -3 -103 c-3 -122 -12 -110 137 -204 l105 -66 -334 0 c-184 0 -330
4 -325 8 6 5 58 39 118 76 l107 68 0 177 0 178 -115 72 c-63 40 -115 75 -115
77 0 2 130 4 288 4 l288 0 55 -48z m4496 35 c-11 -7 -66 -42 -123 -79 l-104
-67 0 -169 c0 -196 -15 -168 139 -266 l104 -66 -404 0 -404 0 100 64 c55 35
110 71 121 80 21 15 22 22 20 188 l-1 173 -112 71 c-62 39 -116 74 -120 77 -3
4 176 7 398 6 316 0 400 -3 386 -12z m669 -15 c129 -113 374 -322 377 -322 2
0 2 44 1 98 l-1 97 -119 75 -118 75 167 3 c92 1 242 1 334 0 l166 -3 -69 -44
c-38 -24 -89 -57 -114 -73 l-45 -29 -5 -252 -5 -252 -168 -3 -169 -2 -31 26
c-18 15 -59 52 -93 83 -86 80 -223 204 -261 236 l-33 27 0 -109 0 -108 122
-77 122 -78 -332 0 c-183 0 -332 2 -332 4 0 2 52 36 115 76 l115 72 0 177 0
176 -115 74 c-63 40 -115 75 -115 77 0 2 129 4 288 4 l287 -1 31 -27z m50
-750 c6 -4 21 -26 33 -49 12 -24 25 -43 29 -43 4 0 18 21 32 48 26 49 48 60
96 48 23 -6 24 -11 24 -80 0 -56 -4 -75 -15 -80 -31 -11 -44 5 -47 57 l-3 52
-27 -51 c-43 -81 -81 -82 -118 -3 -13 27 -27 49 -31 49 -4 0 -7 -20 -6 -45 2
-53 -12 -72 -42 -56 -18 10 -21 21 -21 76 0 50 4 66 18 74 20 12 62 14 78 3z
m872 -9 c2 -8 -6 -13 -22 -13 -17 0 -26 5 -26 16 0 19 41 16 48 -3z m420 -21
l3 -33 67 3 67 3 3 33 c3 28 7 32 33 32 l29 0 0 -79 c0 -61 -3 -80 -15 -85
-26 -10 -44 5 -47 37 l-3 32 -65 0 -65 0 -3 -32 c-3 -35 -24 -48 -52 -33 -16
8 -18 20 -15 77 1 38 3 72 4 76 0 5 13 7 29 5 23 -2 28 -8 30 -36z m612 -41
c0 -64 -3 -80 -16 -85 -31 -12 -44 13 -44 84 0 74 3 80 37 80 22 0 23 -3 23
-79z m134 63 c13 -34 6 -131 -10 -145 -28 -23 -49 1 -52 61 -4 76 3 100 32
100 13 0 27 -7 30 -16z m-1707 -32 c6 -4 13 -25 15 -47 3 -43 18 -52 64 -41
20 5 24 12 24 46 0 30 4 40 20 45 32 10 40 -3 40 -60 0 -55 -18 -77 -45 -55
-8 6 -23 6 -46 0 -36 -11 -85 -5 -106 12 -7 6 -13 30 -13 53 0 38 7 51 30 54
3 0 10 -3 17 -7z m376 -3 c37 -10 48 -24 25 -32 -7 -2 -26 2 -43 8 -16 7 -41
9 -55 5 l-25 -7 25 -6 c14 -3 45 -9 70 -14 46 -8 67 -37 39 -53 -40 -25 -167
-17 -185 11 -12 20 6 22 53 7 46 -15 83 -14 83 2 0 4 -21 11 -47 15 -98 14
-118 39 -52 62 43 15 65 15 112 2z m167 -54 c0 -56 -11 -70 -42 -53 -25 12
-25 93 -1 106 31 18 43 3 43 -53z m245 51 c19 -8 35 -20 35 -25 0 -14 -47 -14
-55 -1 -7 11 -54 13 -79 4 -9 -3 -16 -16 -16 -29 0 -36 54 -47 105 -21 29 15
58 11 52 -8 -15 -47 -203 -37 -222 12 -8 22 21 61 53 68 15 3 32 7 37 9 23 8
58 4 90 -9z m639 -2 c15 -6 29 -94 16 -107 -4 -5 -16 -4 -27 1 -13 7 -34 7
-64 1 -56 -13 -119 3 -119 30 0 23 12 28 89 37 34 3 61 11 61 15 0 12 -87 11
-95 -1 -10 -16 -45 -12 -45 5 0 8 12 17 28 21 15 3 32 7 37 10 12 4 99 -4 119
-12z"/>
<path d="M10864 6385 c-49 -20 -67 -81 -39 -134 16 -32 33 -41 75 -41 42 0 70
29 77 77 10 75 -48 125 -113 98z m62 -33 c12 -8 16 -112 4 -112 -4 0 -12 11
-18 25 -6 14 -16 25 -22 25 -5 0 -10 -11 -10 -25 0 -16 -6 -25 -15 -25 -12 0
-15 13 -15 60 l0 60 33 0 c17 0 37 -4 43 -8z"/>
<path d="M10880 6326 c0 -10 9 -16 21 -16 24 0 21 23 -4 28 -10 2 -17 -3 -17
-12z"/>
<path d="M10418 5293 c-35 -9 -17 -24 24 -21 47 3 67 29 21 27 -15 -1 -36 -3
-45 -6z"/>
</g>
</svg>
